<?xml version="1.0" standalone="no"?>
<!DOCTYPE svg PUBLIC "-//W3C//DTD SVG 20010904//EN"
 "http://www.w3.org/TR/2001/REC-SVG-20010904/DTD/svg10.dtd">
<svg version="1.0" xmlns="http://www.w3.org/2000/svg"
 width="512.000000pt" height="512.000000pt" viewBox="0 0 512.000000 512.000000"
 preserveAspectRatio="xMidYMid meet">

<g transform="translate(0.000000,512.000000) scale(0.100000,-0.100000)"
fill="#000000" stroke="none">
<path d="M2364 4435 c-1019 -112 -1794 -975 -1794 -1999 0 -383 104 -745 308
-1074 147 -236 343 -437 591 -606 116 -79 338 -185 490 -235 582 -191 1225
-104 1736 235 446 295 750 750 863 1289 25 122 27 145 27 390 0 234 -2 271
-23 370 -45 212 -88 338 -172 510 -312 635 -901 1046 -1605 1120 -169 18 -256
18 -421 0z m491 -374 c111 -23 210 -64 312 -127 63 -38 148 -117 431 -398 252
-252 352 -357 352 -373 0 -16 -64 -86 -215 -235 -119 -117 -222 -214 -230
-216 -9 -2 -174 155 -390 370 -206 205 -387 378 -402 385 -35 15 -83 16 -120
3 -32 -13 -967 -941 -989 -983 -18 -34 -20 -91 -4 -132 6 -17 172 -191 387
-407 371 -371 376 -377 361 -400 -27 -41 -408 -413 -423 -413 -8 0 -170 155
-361 345 -365 365 -425 436 -485 579 -77 183 -96 407 -50 591 26 105 79 228
137 317 46 72 844 876 929 937 111 80 245 138 375 162 103 19 281 17 385 -5z
m-122 -729 c48 -48 87 -94 87 -103 0 -19 -51 -69 -70 -69 -8 0 -33 19 -57 42
-36 35 -44 39 -58 28 -14 -12 -13 -16 15 -45 16 -17 30 -37 30 -45 0 -16 -49
-70 -64 -70 -5 0 -25 14 -43 32 -27 27 -34 29 -48 18 -14 -12 -11 -19 31 -61
46 -47 47 -48 30 -73 -9 -14 -28 -33 -42 -42 l-25 -17 -95 94 c-52 51 -94 100
-94 108 0 23 271 291 295 291 12 0 54 -34 108 -88z m214 -215 c119 -123 119
-183 -1 -303 -124 -124 -188 -124 -313 0 -56 56 -71 76 -67 93 8 31 267 283
291 283 11 0 49 -30 90 -73z m311 -310 c67 -68 122 -129 122 -135 0 -21 -72
-92 -93 -92 -12 0 -36 14 -54 32 l-33 32 -93 -92 c-51 -51 -100 -92 -109 -92
-24 0 -88 69 -88 94 0 13 35 55 90 111 l90 91 -30 29 c-16 16 -30 38 -30 49 0
24 67 96 90 96 9 0 71 -56 138 -123z m182 -1642 c-201 -201 -390 -382 -420
-402 -237 -159 -569 -143 -773 38 l-49 42 401 401 401 401 -370 370 -370 370
173 173 172 172 600 -600 600 -600 -365 -365z m83 1377 c48 -48 87 -94 87
-103 0 -19 -51 -69 -70 -69 -8 0 -33 19 -57 42 -36 35 -44 39 -58 28 -13 -11
-11 -17 21 -52 l36 -40 -33 -34 c-18 -19 -37 -34 -43 -34 -6 0 -24 14 -42 31
-31 30 -54 32 -54 5 0 -6 18 -30 40 -51 22 -21 40 -44 40 -49 0 -14 -61 -76
-75 -76 -16 0 -195 184 -195 200 0 23 272 290 295 290 12 0 54 -34 108 -88z
m173 -197 c103 -30 160 -143 121 -238 -8 -18 -22 -38 -31 -46 -15 -13 -22 -9
-62 30 -37 36 -44 49 -40 70 5 29 -9 49 -35 49 -9 0 -37 -22 -63 -50 -41 -43
-45 -53 -36 -71 9 -15 18 -19 38 -14 23 5 35 -2 75 -43 l49 -49 -28 -22 c-35
-28 -64 -35 -124 -29 -110 11 -185 127 -150 232 15 47 140 173 183 185 45 13
47 13 103 -4z m263 -236 c56 -55 56 -64 11 -113 -22 -24 -40 -48 -40 -54 0
-27 24 -20 65 17 25 23 47 41 50 41 31 0 95 -64 95 -94 0 -24 -266 -296 -289
-296 -22 0 -91 71 -91 92 0 10 18 38 40 62 35 38 38 45 25 56 -13 10 -22 6
-60 -29 -24 -22 -50 -41 -58 -41 -7 0 -30 18 -51 39 -30 30 -37 45 -33 63 8
29 268 288 290 288 8 0 29 -14 46 -31z m-1310 -464 c50 -55 55 -95 14 -137
l-27 -28 33 -34 c28 -29 31 -37 22 -55 -7 -12 -23 -28 -37 -38 l-25 -16 -100
99 c-54 54 -102 108 -105 118 -5 15 8 34 54 78 79 76 110 79 171 13z m-146
-214 c54 -55 97 -108 97 -117 0 -23 -39 -64 -60 -64 -16 0 -220 200 -220 216
0 15 54 64 70 64 10 0 60 -45 113 -99z m-173 -16 l24 -25 -38 -39 c-25 -26
-34 -41 -26 -46 6 -4 22 2 34 14 29 27 37 26 66 -4 l24 -25 -28 -29 c-39 -41
-15 -51 29 -12 39 34 55 32 81 -6 l17 -26 -71 -69 c-38 -37 -74 -68 -80 -68
-15 0 -206 198 -210 217 -5 19 116 143 138 143 9 0 27 -11 40 -25z m-171 -176
c17 -6 31 -18 31 -27 0 -22 -50 -72 -72 -72 -43 0 -26 -52 29 -94 19 -14 27
-15 39 -5 20 16 12 34 -16 34 -12 0 -28 8 -34 17 -8 14 -4 24 24 53 19 19 41
35 49 35 26 -1 69 -43 86 -83 21 -50 7 -94 -41 -136 -69 -61 -125 -50 -208 40
-62 67 -77 109 -53 155 19 36 54 70 87 83 33 13 41 13 79 0z"/>
<path d="M2795 2960 c-24 -25 -27 -34 -19 -48 18 -28 49 -26 73 4 19 24 20 30
8 48 -20 30 -30 29 -62 -4z"/>
<path d="M2550 1581 c0 -12 29 -35 36 -28 11 10 -5 37 -21 37 -8 0 -15 -4 -15
-9z"/>
</g>
</svg>
